<svg width="80" height="80" viewBox="0 0 80 80" fill="none" xmlns="http://www.w3.org/2000/svg">
<rect width="80" height="80" rx="2" fill="#E81111"/>
<g clip-path="url(#clip0_4412_2217)">
<path fill-rule="evenodd" clip-rule="evenodd" d="M16.293 48.739C16.293 48.9125 16.4332 49.0531 16.6067 49.0531H19.2737C19.4469 49.0531 19.5875 48.9125 19.5875 48.739V31.3293C19.5875 31.156 19.4469 31.0156 19.2737 31.0156H16.6067C16.4332 31.0156 16.293 31.156 16.293 31.3293V37.6813C16.293 37.8548 16.1525 37.995 15.9794 37.995H9.23343C9.06027 37.995 8.91967 37.8548 8.91967 37.6813V31.3293C8.91967 31.156 8.77926 31.0156 8.60592 31.0156H5.93875C5.76559 31.0156 5.625 31.156 5.625 31.3293V48.739C5.625 48.9125 5.76559 49.0531 5.93875 49.0531H8.60592C8.77926 49.0531 8.91967 48.9125 8.91967 48.739V41.2894C8.91967 41.1159 9.06027 40.9753 9.23343 40.9753H15.9794C16.1525 40.9753 16.293 41.1159 16.293 41.2894V48.739Z" fill="white"/>
<path fill-rule="evenodd" clip-rule="evenodd" d="M26.3959 34.3096C26.3959 34.1359 26.5365 33.9954 26.7098 33.9954H34.8676C35.0407 33.9954 35.1813 33.8552 35.1813 33.6817V31.3295C35.1813 31.156 35.0407 31.0156 34.8676 31.0156H23.4153C23.2422 31.0156 23.1016 31.156 23.1016 31.3293V48.739C23.1016 48.9125 23.2422 49.0531 23.4153 49.0531H34.8676C35.0407 49.0531 35.1813 48.9125 35.1813 48.739V46.3868C35.1813 46.2135 35.0407 46.0731 34.8676 46.0731H26.7098C26.5365 46.0731 26.3959 45.9326 26.3959 45.7593V41.2894C26.3959 41.1159 26.5365 40.9753 26.7098 40.9753H33.4558C33.6289 40.9753 33.7695 40.8349 33.7695 40.6616V38.3087C33.7695 38.1356 33.6289 37.995 33.4558 37.995H26.7098C26.5365 37.995 26.3959 37.8548 26.3959 37.6813V34.3096Z" fill="white"/>
<path fill-rule="evenodd" clip-rule="evenodd" d="M68.5291 42.6475C68.7026 42.6475 68.7946 42.5071 68.7344 42.3338L66.4348 35.5784C66.4074 35.4973 66.3757 35.456 66.334 35.456C66.2924 35.456 66.2607 35.4973 66.2333 35.5784L63.9335 42.3338C63.8735 42.5071 63.9657 42.6475 64.1388 42.6475H68.5291ZM67.8793 31.0156C68.0526 31.0156 68.2416 31.156 68.3016 31.3295L74.3199 48.739C74.3797 48.9125 74.2878 49.0531 74.1145 49.0531H71.369C71.1959 49.0531 71.0067 48.9125 70.9469 48.739L69.978 45.863C69.9181 45.69 69.7289 45.5495 69.5557 45.5495H63.1123C62.9388 45.5495 62.75 45.69 62.69 45.863L61.721 48.739C61.6612 48.9125 61.472 49.0531 61.2987 49.0531H58.5534C58.3802 49.0531 58.2884 48.9125 58.348 48.739L64.3664 31.3295C64.4264 31.156 64.6154 31.0156 64.7888 31.0156H67.8793Z" fill="white"/>
<path fill-rule="evenodd" clip-rule="evenodd" d="M46.4528 48.739C46.2794 48.739 46.0867 48.5986 46.0228 48.4255L41.6 36.4172C41.5406 36.2549 41.5041 36.2632 41.5041 36.4362V48.739C41.5041 48.9125 41.3639 49.0531 41.1905 49.0531H38.5237C38.3504 49.0531 38.21 48.9125 38.21 48.739V31.3295C38.21 31.156 38.3504 31.0156 38.5237 31.0156H42.4441C42.6173 31.0156 42.8097 31.156 42.8741 31.3295L47.1969 43.1868C47.2328 43.2859 47.2588 43.3138 47.3019 43.3138C47.3449 43.3138 47.3707 43.2859 47.4069 43.1868L51.7295 31.3295C51.7939 31.156 51.9864 31.0156 52.1598 31.0156H56.08C56.2532 31.0156 56.3938 31.156 56.3938 31.3295V48.739C56.3938 48.9125 56.2532 49.0531 56.08 49.0531H53.413C53.2397 49.0531 53.0994 48.9125 53.0994 48.739V36.4362C53.0994 36.2632 53.0631 36.2549 53.0037 36.4172L48.5811 48.4255C48.5166 48.5986 48.3243 48.739 48.1511 48.739H46.4528Z" fill="white"/>
</g>
<defs>
<clipPath id="clip0_4412_2217">
<rect width="68.7131" height="18.0374" fill="white" transform="translate(5.625 31.0156)"/>
</clipPath>
</defs>
</svg>
